<svg width="25" height="24" viewBox="0 0 25 24" fill="none" xmlns="http://www.w3.org/2000/svg">
<g id="vuesax/outline/car">
<g id="car">
<path id="Vector" d="M20.4996 11.7501H4.49961C4.26961 11.7501 4.05961 11.6501 3.91961 11.4701C3.77961 11.3001 3.71961 11.0601 3.76961 10.8401L4.89961 5.44008C5.26961 3.69008 6.01961 2.08008 8.98961 2.08008H16.0196C18.9896 2.08008 19.7396 3.70008 20.1096 5.44008L21.2396 10.8501C21.2896 11.0701 21.2296 11.3001 21.0896 11.4801C20.9396 11.6501 20.7296 11.7501 20.4996 11.7501ZM5.41961 10.2501H19.5696L18.6296 5.75008C18.3496 4.44008 18.0196 3.58008 16.0096 3.58008H8.98961C6.97961 3.58008 6.64961 4.44008 6.36961 5.75008L5.41961 10.2501Z" fill="#292D32"/>
<path id="Vector_2" d="M20.4596 22.7501H18.5796C16.9596 22.7501 16.6496 21.8201 16.4496 21.2101L16.2496 20.6101C15.9896 19.8501 15.9596 19.7501 15.0596 19.7501H9.9396C9.0396 19.7501 8.9796 19.9201 8.7496 20.6101L8.5496 21.2101C8.3396 21.8301 8.0396 22.7501 6.4196 22.7501H4.5396C3.7496 22.7501 2.9896 22.4201 2.4596 21.8401C1.9396 21.2701 1.6896 20.5101 1.7596 19.7501L2.3196 13.6601C2.4696 12.0101 2.9096 10.2501 6.1196 10.2501H18.8796C22.0896 10.2501 22.5196 12.0101 22.6796 13.6601L23.2396 19.7501C23.3096 20.5101 23.0596 21.2701 22.5396 21.8401C22.0096 22.4201 21.2496 22.7501 20.4596 22.7501ZM9.9396 18.2501H15.0596C16.8796 18.2501 17.3096 19.0601 17.6696 20.1201L17.8796 20.7401C18.0496 21.2501 18.0496 21.2601 18.5896 21.2601H20.4696C20.8396 21.2601 21.1896 21.1101 21.4396 20.8401C21.6796 20.5801 21.7896 20.2501 21.7596 19.9001L21.1996 13.8101C21.0696 12.4601 20.9096 11.7601 18.8996 11.7601H6.1196C4.0996 11.7601 3.9396 12.4601 3.8196 13.8101L3.2596 19.9001C3.2296 20.2501 3.3396 20.5801 3.5796 20.8401C3.8196 21.1101 4.1796 21.2601 4.5496 21.2601H6.4296C6.9696 21.2601 6.9696 21.2501 7.1396 20.7501L7.3396 20.1401C7.5896 19.3401 7.9596 18.2501 9.9396 18.2501Z" fill="#292D32"/>
<path id="Vector_3" d="M4.49957 8.75006H3.49957C3.08957 8.75006 2.74957 8.41006 2.74957 8.00006C2.74957 7.59006 3.08957 7.25006 3.49957 7.25006H4.49957C4.90957 7.25006 5.24957 7.59006 5.24957 8.00006C5.24957 8.41006 4.90957 8.75006 4.49957 8.75006Z" fill="#292D32"/>
<path id="Vector_4" d="M21.4996 8.75006H20.4996C20.0896 8.75006 19.7496 8.41006 19.7496 8.00006C19.7496 7.59006 20.0896 7.25006 20.4996 7.25006H21.4996C21.9096 7.25006 22.2496 7.59006 22.2496 8.00006C22.2496 8.41006 21.9096 8.75006 21.4996 8.75006Z" fill="#292D32"/>
<path id="Vector_5" d="M12.4996 5.75006C12.0896 5.75006 11.7496 5.41006 11.7496 5.00006V3.00006C11.7496 2.59006 12.0896 2.25006 12.4996 2.25006C12.9096 2.25006 13.2496 2.59006 13.2496 3.00006V5.00006C13.2496 5.41006 12.9096 5.75006 12.4996 5.75006Z" fill="#292D32"/>
<path id="Vector_6" d="M13.9996 5.75006H10.9996C10.5896 5.75006 10.2496 5.41006 10.2496 5.00006C10.2496 4.59006 10.5896 4.25006 10.9996 4.25006H13.9996C14.4096 4.25006 14.7496 4.59006 14.7496 5.00006C14.7496 5.41006 14.4096 5.75006 13.9996 5.75006Z" fill="#292D32"/>
<path id="Vector_7" d="M9.49957 15.7501H6.49957C6.08957 15.7501 5.74957 15.4101 5.74957 15.0001C5.74957 14.5901 6.08957 14.2501 6.49957 14.2501H9.49957C9.90957 14.2501 10.2496 14.5901 10.2496 15.0001C10.2496 15.4101 9.90957 15.7501 9.49957 15.7501Z" fill="#292D32"/>
<path id="Vector_8" d="M18.4996 15.7501H15.4996C15.0896 15.7501 14.7496 15.4101 14.7496 15.0001C14.7496 14.5901 15.0896 14.2501 15.4996 14.2501H18.4996C18.9096 14.2501 19.2496 14.5901 19.2496 15.0001C19.2496 15.4101 18.9096 15.7501 18.4996 15.7501Z" fill="#292D32"/>
</g>
</g>
</svg>
